<?xml version="1.0" encoding="UTF-8"?>
<svg xmlns="http://www.w3.org/2000/svg" xmlns:xlink="http://www.w3.org/1999/xlink" width="1080" height="2400" viewBox="0 0 360 800"
     data-export="design-export/export_ui.py" data-mode="night"
     data-source="app/src/main/res/layout/activity_main.xml">
  <title>首页 · 设备状态</title>
  <desc>默认板块:分数环 + 一键优化 + 四宫格入口</desc>
  <defs>
  <linearGradient id="grad_bg_page_night" x1="0" y1="0" x2="0" y2="1" gradientUnits="objectBoundingBox">
    <stop offset="0" stop-color="#101711"/>
    <stop offset="1" stop-color="#0B0E0C"/>
  </linearGradient>
  </defs>
    <g id="FrameLayout" data-name="FrameLayout" data-type="FrameLayout" data-x="0" data-y="0" data-w="360" data-h="800">
      <rect x="0" y="0" width="360" height="800" fill="url(#grad_bg_page_night)"/>
    <g id="LinearLayout" data-name="LinearLayout" data-type="LinearLayout" data-x="0" data-y="0" data-w="360" data-h="800">
    <g id="container" data-name="container" data-type="FrameLayout" data-x="0" data-y="0" data-w="360" data-h="800">
    <g id="ScrollView" data-name="ScrollView" data-type="ScrollView" data-x="0" data-y="0" data-w="360" data-h="728">
    <g id="LinearLayout" data-name="LinearLayout" data-type="LinearLayout" data-x="0" data-y="0" data-w="360" data-h="728">
    <g id="tvHomeTitle" data-name="tvHomeTitle" data-type="TextView" data-x="6" data-y="8" data-w="95.28" data-h="32.4">
      <text font-family="Noto Sans CJK SC, Source Han Sans SC, PingFang SC, Microsoft YaHei, Roboto, sans-serif" font-size="24" font-weight="bold" fill="#EDF2EC" text-anchor="start" letter-spacing="-0.24" data-text="安全中心">
        <tspan x="6" y="28.4">安全中心</tspan>
      </text>
    </g>
    <g id="FrameLayout" data-name="FrameLayout" data-type="FrameLayout" data-x="85" data-y="64.4" data-w="190" data-h="190">
    <g id="View" data-name="View" data-type="View" data-x="110" data-y="89.4" data-w="140" data-h="140">
      <ellipse cx="180" cy="159.4" rx="70" ry="70" fill="#16241A"/>
    </g>
    <g id="scoreRing" data-name="scoreRing" data-type="CircularProgressIndicator" data-x="85" data-y="64.4" data-w="190" data-h="190">
      <circle cx="180" cy="159.4" r="82.5" fill="none" stroke="#22301F" stroke-width="25"/>
      <circle cx="180" cy="159.4" r="82.5" fill="none" stroke="#31D027" stroke-width="25"/>
    </g>
    <g id="LinearLayout" data-name="LinearLayout" data-type="LinearLayout" data-x="137.61" data-y="113.5" data-w="84.78" data-h="91.8">
    <g id="tvScore" data-name="tvScore" data-type="TextView" data-x="137.61" data-y="113.5" data-w="84.78" data-h="72.9">
      <text font-family="Noto Sans CJK SC, Source Han Sans SC, PingFang SC, Microsoft YaHei, Roboto, sans-serif" font-size="54" font-weight="bold" fill="#EDF2EC" text-anchor="start" letter-spacing="-2.16" data-text="100">
        <tspan x="137.61" y="159.4">100</tspan>
      </text>
    </g>
    <g id="tvScoreUnit" data-name="tvScoreUnit" data-type="TextView" data-x="173" data-y="186.4" data-w="14" data-h="18.9">
      <text font-family="Noto Sans CJK SC, Source Han Sans SC, PingFang SC, Microsoft YaHei, Roboto, sans-serif" font-size="14" font-weight="normal" fill="#A9B3A7" text-anchor="start" letter-spacing="0" data-text="分">
        <tspan x="173" y="198.3">分</tspan>
      </text>
    </g>
    </g>
    </g>
    <g id="tvState" data-name="tvState" data-type="TextView" data-x="6" data-y="274.4" data-w="348" data-h="22.95">
      <text font-family="Noto Sans CJK SC, Source Han Sans SC, PingFang SC, Microsoft YaHei, Roboto, sans-serif" font-size="17" font-weight="normal" fill="#A9B3A7" text-anchor="middle" letter-spacing="0" data-text="设备状态良好,未发现威胁">
        <tspan x="180" y="288.85">设备状态良好,未发现威胁</tspan>
      </text>
    </g>
    <g id="btnOptimize" data-name="btnOptimize" data-type="MaterialButton" data-x="54" data-y="313.35" data-w="252" data-h="48">
      <rect x="54" y="313.35" width="252" height="48" fill="#31D027" rx="24" ry="24"/>
      <text font-family="Noto Sans CJK SC, Source Han Sans SC, PingFang SC, Microsoft YaHei, Roboto, sans-serif" font-size="16" font-weight="bold" fill="#06210A" text-anchor="middle" letter-spacing="0" data-text="一键优化">
        <tspan x="180" y="339.35">一键优化</tspan>
      </text>
    </g>
    <g id="LinearLayout" data-name="LinearLayout" data-type="LinearLayout" data-x="6" data-y="385.35" data-w="348" data-h="128">
    <g id="tileClean" data-name="tileClean" data-type="MaterialCardView" data-x="6" data-y="385.35" data-w="169" data-h="128">
      <rect x="6" y="385.35" width="169" height="128" fill="#171B18" rx="24" ry="24"/>
    <g id="LinearLayout" data-name="LinearLayout" data-type="LinearLayout" data-x="6" data-y="385.35" data-w="169" data-h="128">
    <g id="ImageView" data-name="ImageView" data-type="ImageView" data-x="22" data-y="401.35" data-w="26" data-h="26">
      <g data-name="icon:ic_clean" transform="translate(22,401.35) scale(1.08333)">
        <path d="M10.4,3.9 L11.9,9 L17,10.5 L11.9,12 L10.4,17.1 L8.9,12 L3.8,10.5 L8.9,9 Z" fill="none" stroke="#EDF2EC" stroke-width="2" stroke-linecap="round" stroke-linejoin="round"/>
        <path d="M17.6,14.2 L18.6,16.6 L21,17.6 L18.6,18.6 L17.6,21 L16.6,18.6 L14.2,17.6 L16.6,16.6 Z" fill="none" stroke="#EDF2EC" stroke-width="2" stroke-linecap="round" stroke-linejoin="round"/>
      </g>
    </g>
    <g id="TextView: 清理存储" data-name="TextView: 清理存储" data-type="TextView" data-x="22" data-y="451.35" data-w="72" data-h="24.3">
      <text font-family="Noto Sans CJK SC, Source Han Sans SC, PingFang SC, Microsoft YaHei, Roboto, sans-serif" font-size="18" font-weight="bold" fill="#EDF2EC" text-anchor="start" letter-spacing="0" data-text="清理存储">
        <tspan x="22" y="466.65">清理存储</tspan>
      </text>
    </g>
    <g id="tvCleanSub" data-name="tvCleanSub" data-type="TextView" data-x="22" data-y="479.65" data-w="137" data-h="20.25">
      <text font-family="Noto Sans CJK SC, Source Han Sans SC, PingFang SC, Microsoft YaHei, Roboto, sans-serif" font-size="15" font-weight="normal" fill="#A9B3A7" text-anchor="start" letter-spacing="0" data-text="查看可释放空间">
        <tspan x="22" y="492.4">查看可释放空间</tspan>
      </text>
    </g>
    </g>
    </g>
    <g id="tileVirus" data-name="tileVirus" data-type="MaterialCardView" data-x="185" data-y="385.35" data-w="169" data-h="128">
      <rect x="185" y="385.35" width="169" height="128" fill="#171B18" rx="24" ry="24"/>
    <g id="LinearLayout" data-name="LinearLayout" data-type="LinearLayout" data-x="185" data-y="385.35" data-w="169" data-h="128">
    <g id="ImageView" data-name="ImageView" data-type="ImageView" data-x="201" data-y="401.35" data-w="26" data-h="26">
      <g data-name="icon:ic_bug" transform="translate(201,401.35) scale(1.08333)">
        <path d="M12,7.5 a4.8,4.8 0 0,1 4.8,4.8 v1.4 a4.8,4.8 0 0,1 -9.6,0 v-1.4 A4.8,4.8 0 0,1 12,7.5 z" fill="none" stroke="#EDF2EC" stroke-width="2" stroke-linecap="round" stroke-linejoin="round"/>
        <path d="M12,7.5 V5.2" fill="none" stroke="#EDF2EC" stroke-width="2" stroke-linecap="round" stroke-linejoin="round"/>
        <path d="M7.2,10.2 L4.6,8.4" fill="none" stroke="#EDF2EC" stroke-width="2" stroke-linecap="round" stroke-linejoin="round"/>
        <path d="M16.8,10.2 L19.4,8.4" fill="none" stroke="#EDF2EC" stroke-width="2" stroke-linecap="round" stroke-linejoin="round"/>
        <path d="M7.4,14.6 L4.8,15.8" fill="none" stroke="#EDF2EC" stroke-width="2" stroke-linecap="round" stroke-linejoin="round"/>
        <path d="M16.6,14.6 L19.2,15.8" fill="none" stroke="#EDF2EC" stroke-width="2" stroke-linecap="round" stroke-linejoin="round"/>
      </g>
    </g>
    <g id="TextView: 病毒风险" data-name="TextView: 病毒风险" data-type="TextView" data-x="201" data-y="451.35" data-w="72" data-h="24.3">
      <text font-family="Noto Sans CJK SC, Source Han Sans SC, PingFang SC, Microsoft YaHei, Roboto, sans-serif" font-size="18" font-weight="bold" fill="#EDF2EC" text-anchor="start" letter-spacing="0" data-text="病毒风险">
        <tspan x="201" y="466.65">病毒风险</tspan>
      </text>
    </g>
    <g id="tvVirusSub" data-name="tvVirusSub" data-type="TextView" data-x="201" data-y="479.65" data-w="137" data-h="20.25">
      <text font-family="Noto Sans CJK SC, Source Han Sans SC, PingFang SC, Microsoft YaHei, Roboto, sans-serif" font-size="15" font-weight="normal" fill="#A9B3A7" text-anchor="start" letter-spacing="0" data-text="尚未扫描">
        <tspan x="201" y="492.4">尚未扫描</tspan>
      </text>
    </g>
    </g>
    </g>
    </g>
    <g id="LinearLayout" data-name="LinearLayout" data-type="LinearLayout" data-x="6" data-y="523.35" data-w="348" data-h="128">
    <g id="tileNetwork" data-name="tileNetwork" data-type="MaterialCardView" data-x="6" data-y="523.35" data-w="169" data-h="128">
      <rect x="6" y="523.35" width="169" height="128" fill="#171B18" rx="24" ry="24"/>
    <g id="LinearLayout" data-name="LinearLayout" data-type="LinearLayout" data-x="6" data-y="523.35" data-w="169" data-h="128">
    <g id="ImageView" data-name="ImageView" data-type="ImageView" data-x="22" data-y="539.35" data-w="26" data-h="26">
      <g data-name="icon:ic_network" transform="translate(22,539.35) scale(1.08333)">
        <path d="M12,3.6 a8.4,8.4 0 1,0 0,16.8 a8.4,8.4 0 1,0 0,-16.8 Z" fill="none" stroke="#EDF2EC" stroke-width="2" stroke-linecap="round" stroke-linejoin="round"/>
        <path d="M3.6,12 h16.8" fill="none" stroke="#EDF2EC" stroke-width="2" stroke-linecap="round" stroke-linejoin="round"/>
        <path d="M12,3.6 c3.6,3 3.6,13.8 0,16.8 c-3.6,-3 -3.6,-13.8 0,-16.8 Z" fill="none" stroke="#EDF2EC" stroke-width="2" stroke-linecap="round" stroke-linejoin="round"/>
      </g>
    </g>
    <g id="TextView: 网络审计" data-name="TextView: 网络审计" data-type="TextView" data-x="22" data-y="589.35" data-w="72" data-h="24.3">
      <text font-family="Noto Sans CJK SC, Source Han Sans SC, PingFang SC, Microsoft YaHei, Roboto, sans-serif" font-size="18" font-weight="bold" fill="#EDF2EC" text-anchor="start" letter-spacing="0" data-text="网络审计">
        <tspan x="22" y="604.65">网络审计</tspan>
      </text>
    </g>
    <g id="tvNetworkSub" data-name="tvNetworkSub" data-type="TextView" data-x="22" data-y="617.65" data-w="137" data-h="20.25">
      <text font-family="Noto Sans CJK SC, Source Han Sans SC, PingFang SC, Microsoft YaHei, Roboto, sans-serif" font-size="15" font-weight="normal" fill="#A9B3A7" text-anchor="start" letter-spacing="0" data-text="查看网络连接">
        <tspan x="22" y="630.4">查看网络连接</tspan>
      </text>
    </g>
    </g>
    </g>
    <g id="tileApplock" data-name="tileApplock" data-type="MaterialCardView" data-x="185" data-y="523.35" data-w="169" data-h="128">
      <rect x="185" y="523.35" width="169" height="128" fill="#171B18" rx="24" ry="24"/>
    <g id="LinearLayout" data-name="LinearLayout" data-type="LinearLayout" data-x="185" data-y="523.35" data-w="169" data-h="128">
    <g id="ImageView" data-name="ImageView" data-type="ImageView" data-x="201" data-y="539.35" data-w="26" data-h="26">
      <g data-name="icon:ic_lock" transform="translate(201,539.35) scale(1.08333)">
        <path d="M7.4,10.4 h9.2 a2.2,2.2 0 0,1 2.2,2.2 v5.2 a2.2,2.2 0 0,1 -2.2,2.2 h-9.2 a2.2,2.2 0 0,1 -2.2,-2.2 v-5.2 a2.2,2.2 0 0,1 2.2,-2.2 z" fill="none" stroke="#EDF2EC" stroke-width="2" stroke-linecap="round" stroke-linejoin="round"/>
        <path d="M8.9,10.4 V8.3 a3.1,3.1 0 0,1 6.2,0 v2.1" fill="none" stroke="#EDF2EC" stroke-width="2" stroke-linecap="round" stroke-linejoin="round"/>
      </g>
    </g>
    <g id="TextView: 应用管理" data-name="TextView: 应用管理" data-type="TextView" data-x="201" data-y="589.35" data-w="72" data-h="24.3">
      <text font-family="Noto Sans CJK SC, Source Han Sans SC, PingFang SC, Microsoft YaHei, Roboto, sans-serif" font-size="18" font-weight="bold" fill="#EDF2EC" text-anchor="start" letter-spacing="0" data-text="应用管理">
        <tspan x="201" y="604.65">应用管理</tspan>
      </text>
    </g>
    <g id="tvApplockSub" data-name="tvApplockSub" data-type="TextView" data-x="201" data-y="617.65" data-w="137" data-h="20.25">
      <text font-family="Noto Sans CJK SC, Source Han Sans SC, PingFang SC, Microsoft YaHei, Roboto, sans-serif" font-size="15" font-weight="normal" fill="#A9B3A7" text-anchor="start" letter-spacing="0" data-text="管理应用锁">
        <tspan x="201" y="630.4">管理应用锁</tspan>
      </text>
    </g>
    </g>
    </g>
    </g>
    </g>
    </g>
    </g>
    </g>
    <g id="bottomNav" data-name="bottomNav" data-type="TabLayout" data-x="6" data-y="736" data-w="348" data-h="60">
      <rect x="6" y="736" width="348" height="60" fill="#191E1A" rx="24" ry="24"/>
      <g data-name="icon:ic_tab_status" transform="translate(52,746) scale(1)">
        <path d="M12,2.4 L4.4,5.5 V11.6 c0,4.7 3.2,8.6 7.6,9.8 4.4,-1.2 7.6,-5.1 7.6,-9.8 V5.5 Z M10.4,15.6 L7.6,12.8 8.7,11.7 10.4,13.4 15.2,8.6 16.3,9.7 Z" fill="#31D027"/>
      </g>
      <text font-family="Noto Sans CJK SC, Source Han Sans SC, PingFang SC, Microsoft YaHei, Roboto, sans-serif" font-size="12" font-weight="bold" fill="#31D027" text-anchor="middle" x="64" y="784">首页</text>
      <g data-name="icon:ic_tab_detect" transform="translate(168,746) scale(1)">
        <path d="M10.5,3 A7,7 0 1,0 10.5,17 A7,7 0 1,0 10.5,3 Z M10.5,5.6 A4.4,4.4 0 1,1 10.5,14.4 A4.4,4.4 0 1,1 10.5,5.6 Z" fill="#A9B3A7"/>
        <path d="M15.6,15.6 L20,20" fill="none" stroke="#A9B3A7" stroke-width="2.6" stroke-linecap="round"/>
      </g>
      <text font-family="Noto Sans CJK SC, Source Han Sans SC, PingFang SC, Microsoft YaHei, Roboto, sans-serif" font-size="12" font-weight="bold" fill="#A9B3A7" text-anchor="middle" x="180" y="784">检测</text>
      <g data-name="icon:ic_tab_protect" transform="translate(284,746) scale(1)">
        <path d="M6.4,10.2 h11.2 a1.9,1.9 0 0,1 1.9,1.9 v7 a1.9,1.9 0 0,1 -1.9,1.9 h-11.2 a1.9,1.9 0 0,1 -1.9,-1.9 v-7 a1.9,1.9 0 0,1 1.9,-1.9 z" fill="#A9B3A7"/>
        <path d="M8.4,10.2 V8 a3.6,3.6 0 0,1 7.2,0 v2.2" fill="none" stroke="#A9B3A7" stroke-width="2.2" stroke-linecap="round"/>
      </g>
      <text font-family="Noto Sans CJK SC, Source Han Sans SC, PingFang SC, Microsoft YaHei, Roboto, sans-serif" font-size="12" font-weight="bold" fill="#A9B3A7" text-anchor="middle" x="296" y="784">防护</text>
    </g>
    </g>
</svg>
